<?xml version="1.0" standalone="no"?>
<!DOCTYPE svg PUBLIC "-//W3C//DTD SVG 20010904//EN"
 "http://www.w3.org/TR/2001/REC-SVG-20010904/DTD/svg10.dtd">
<svg version="1.0" xmlns="http://www.w3.org/2000/svg"
 width="547.000000pt" height="463.000000pt" viewBox="0 0 547.000000 463.000000"
 preserveAspectRatio="xMidYMid meet">

<g transform="translate(0.000000,463.000000) scale(0.100000,-0.100000)"
fill="#000000" stroke="none">
<path d="M2041 3924 c-295 -43 -518 -161 -667 -355 -58 -76 -129 -224 -154
-323 -26 -102 -42 -281 -34 -371 15 -174 77 -344 168 -460 65 -83 184 -185
294 -251 128 -77 274 -138 616 -259 160 -56 330 -119 379 -138 229 -93 376
-207 444 -344 33 -67 37 -83 41 -176 5 -118 -9 -183 -61 -281 -93 -176 -317
-294 -617 -326 -223 -24 -517 23 -695 112 -162 81 -306 213 -378 346 -61 114
-77 196 -77 399 l0 173 -33 0 -34 0 -6 -362 c-5 -323 -17 -559 -32 -671 -5
-36 -5 -37 28 -37 31 0 35 4 46 42 29 96 89 150 185 167 l60 11 80 -54 c97
-64 137 -85 236 -120 294 -106 654 -110 933 -10 307 111 509 326 595 632 25
89 27 112 27 272 0 150 -3 186 -22 252 -58 200 -159 345 -326 470 -162 120
-314 188 -763 341 -459 157 -558 203 -679 319 -119 112 -162 220 -152 377 7
113 36 202 90 279 115 166 305 257 587 284 433 40 794 -109 930 -385 57 -116
70 -188 70 -399 l0 -178 34 0 34 0 5 243 c5 246 20 387 66 627 26 133 27 130
-8 130 -25 0 -33 -7 -53 -46 -41 -84 -133 -144 -218 -144 -12 0 -41 15 -66 34
-203 155 -551 227 -873 180z"/>
<path d="M4673 2872 c55 -81 77 -183 57 -275 -16 -77 -86 -173 -210 -288 -173
-161 -230 -248 -230 -354 0 -107 55 -187 189 -278 69 -47 218 -116 249 -117 8
0 -15 31 -51 70 -88 95 -102 126 -102 225 1 103 26 155 147 307 207 258 238
340 179 474 -37 83 -127 183 -245 274 -11 9 -4 -8 17 -38z"/>
<path d="M5031 2519 c19 -36 7 -138 -24 -199 -15 -30 -72 -110 -126 -178 -129
-162 -153 -206 -159 -298 -4 -61 -1 -80 18 -120 l24 -48 12 63 c17 81 40 117
150 232 131 137 172 237 162 390 -5 60 -46 179 -63 179 -3 0 -1 -10 6 -21z"/>
<path d="M5114 2042 c-3 -76 -36 -131 -139 -230 -97 -93 -135 -150 -135 -202
l0 -31 31 36 c18 20 76 65 130 100 123 82 164 139 163 225 -1 37 -9 71 -25
102 l-24 47 -1 -47z"/>
</g>
</svg>
