<svg xmlns="http://www.w3.org/2000/svg" xmlns:xlink="http://www.w3.org/1999/xlink" viewBox="0,0,256,256" width="100px" height="100px" fill-rule="nonzero"><g fill-opacity="0" fill="#000000" fill-rule="nonzero" stroke="none" stroke-width="1" stroke-linecap="butt" stroke-linejoin="miter" stroke-miterlimit="10" stroke-dasharray="" stroke-dashoffset="0" font-family="none" font-weight="none" font-size="none" text-anchor="none" style="mix-blend-mode: normal"><g transform="scale(5.12,5.12)"><path d="M22,0c-7,0 -12,7 -12,14c0,15.5 13,28 13,28c0,0 -9,-13 -9,-28c0,-12 8,-14 8,-14zM25,0c-1.20986,0 -2.97413,0.72302 -4.42773,2.95313c-1.45361,2.2301 -2.57227,5.92385 -2.57227,12.04688c0,11.34849 5.81641,26.35742 5.81641,26.35742l0.24609,0.64258h1.875l0.24609,-0.64258c0,0 5.81641,-15.00894 5.81641,-26.35742c0,-6.12303 -1.11866,-9.81677 -2.57227,-12.04687c-1.45361,-2.2301 -3.21788,-2.95312 -4.42773,-2.95312zM28,0c0,0 8,2 8,14c0,15 -9,28 -9,28c0,0 13,-12.5 13,-28c0,-7 -5,-14 -12,-14zM14,2c0,0 -8,3 -8,12c0,17 15.5,28 15.5,28c0,0 -13.5,-12 -13.5,-28c0,-8.25 6,-12 6,-12zM25,2c0.36114,0 1.59831,0.27698 2.75195,2.04688c1.15364,1.7699 2.24805,5.07615 2.24805,10.95313c0,9.37071 -3.94207,20.5938 -5,23.51953c-1.05793,-2.92573 -5,-14.14882 -5,-23.51953c0,-5.87697 1.09441,-9.18323 2.24805,-10.95312c1.15364,-1.7699 2.39081,-2.04687 2.75195,-2.04687zM36,2c0,0 6,3.75 6,12c0,16 -13.5,28 -13.5,28c0,0 15.5,-11 15.5,-28c0,-9 -8,-12 -8,-12zM21,44c-0.30794,-0.00011 -0.59876,0.14166 -0.78837,0.3843c-0.18961,0.24264 -0.25687,0.55911 -0.18233,0.85789l1,4c0.11124,0.44549 0.51154,0.75799 0.9707,0.75781h6c0.45917,0.00018 0.85946,-0.31232 0.9707,-0.75781l1,-4c0.07454,-0.29878 0.00728,-0.61525 -0.18233,-0.85789c-0.18961,-0.24264 -0.48043,-0.3844 -0.78837,-0.3843zM22.28125,46h5.4375l-0.5,2h-4.4375z"></path></g></g></svg>